<svg xmlns="http://www.w3.org/2000/svg" width="1220" height="760" viewBox="0 0 1220 760">
<rect width="1220" height="760" fill="#ffffff"/>
<text x="40" y="44" font-family="Arial" font-size="26" font-weight="700" fill="#0b1f25">AquaControl enriched project graph</text>
<text x="40" y="72" font-family="Arial" font-size="14" fill="#587178">High-level view generated from Graphify + Markdown + XML + ESP32 + Docker/Mosquitto files</text>
<defs><marker id="arrow" viewBox="0 0 10 10" refX="9" refY="5" markerWidth="7" markerHeight="7" orient="auto-start-reverse"><path d="M 0 0 L 10 5 L 0 10 z" fill="#587178"/></marker></defs>
<line x1="610.0" y1="105.0" x2="715.2" y2="125.9" stroke="#587178" stroke-width="1.4" marker-end="url(#arrow)" opacity="0.70"/>
<line x1="864.1" y1="274.8" x2="715.2" y2="125.9" stroke="#587178" stroke-width="1.4" marker-end="url(#arrow)" opacity="0.70"/>
<line x1="804.5" y1="185.5" x2="715.2" y2="125.9" stroke="#587178" stroke-width="1.4" marker-end="url(#arrow)" opacity="0.70"/>
<line x1="885.0" y1="380.0" x2="715.2" y2="125.9" stroke="#587178" stroke-width="1.4" marker-end="url(#arrow)" opacity="0.70"/>
<line x1="864.1" y1="274.8" x2="864.1" y2="485.2" stroke="#587178" stroke-width="1.4" marker-end="url(#arrow)" opacity="0.70"/>
<line x1="864.1" y1="274.8" x2="804.5" y2="574.5" stroke="#587178" stroke-width="1.4" marker-end="url(#arrow)" opacity="0.70"/>
<line x1="864.1" y1="274.8" x2="715.2" y2="634.1" stroke="#587178" stroke-width="1.4" marker-end="url(#arrow)" opacity="0.70"/>
<line x1="864.1" y1="274.8" x2="610.0" y2="655.0" stroke="#587178" stroke-width="1.4" marker-end="url(#arrow)" opacity="0.70"/>
<line x1="610.0" y1="105.0" x2="610.0" y2="655.0" stroke="#587178" stroke-width="1.4" marker-end="url(#arrow)" opacity="0.70"/>
<line x1="610.0" y1="655.0" x2="715.2" y2="125.9" stroke="#587178" stroke-width="1.4" marker-end="url(#arrow)" opacity="0.70"/>
<line x1="864.1" y1="274.8" x2="504.8" y2="634.1" stroke="#587178" stroke-width="1.4" marker-end="url(#arrow)" opacity="0.70"/>
<line x1="610.0" y1="105.0" x2="504.8" y2="634.1" stroke="#587178" stroke-width="1.4" marker-end="url(#arrow)" opacity="0.70"/>
<line x1="504.8" y1="634.1" x2="715.2" y2="125.9" stroke="#587178" stroke-width="1.4" marker-end="url(#arrow)" opacity="0.70"/>
<line x1="864.1" y1="274.8" x2="415.5" y2="574.5" stroke="#587178" stroke-width="1.4" marker-end="url(#arrow)" opacity="0.70"/>
<line x1="610.0" y1="105.0" x2="415.5" y2="574.5" stroke="#587178" stroke-width="1.4" marker-end="url(#arrow)" opacity="0.70"/>
<line x1="415.5" y1="574.5" x2="715.2" y2="125.9" stroke="#587178" stroke-width="1.4" marker-end="url(#arrow)" opacity="0.70"/>
<line x1="610.0" y1="105.0" x2="355.9" y2="485.2" stroke="#587178" stroke-width="1.4" marker-end="url(#arrow)" opacity="0.70"/>
<line x1="864.1" y1="274.8" x2="355.9" y2="485.2" stroke="#587178" stroke-width="1.4" marker-end="url(#arrow)" opacity="0.70"/>
<line x1="335.0" y1="380.0" x2="355.9" y2="274.8" stroke="#587178" stroke-width="1.4" marker-end="url(#arrow)" opacity="0.70"/>
<line x1="335.0" y1="380.0" x2="415.5" y2="185.5" stroke="#587178" stroke-width="1.4" marker-end="url(#arrow)" opacity="0.70"/>
<line x1="335.0" y1="380.0" x2="415.5" y2="574.5" stroke="#587178" stroke-width="1.4" marker-end="url(#arrow)" opacity="0.70"/>
<line x1="335.0" y1="380.0" x2="610.0" y2="655.0" stroke="#587178" stroke-width="1.4" marker-end="url(#arrow)" opacity="0.70"/>
<line x1="335.0" y1="380.0" x2="504.8" y2="634.1" stroke="#587178" stroke-width="1.4" marker-end="url(#arrow)" opacity="0.70"/>
<line x1="335.0" y1="380.0" x2="355.9" y2="485.2" stroke="#587178" stroke-width="1.4" marker-end="url(#arrow)" opacity="0.70"/>
<line x1="335.0" y1="380.0" x2="610.0" y2="105.0" stroke="#587178" stroke-width="1.4" marker-end="url(#arrow)" opacity="0.70"/>
<line x1="335.0" y1="380.0" x2="804.5" y2="185.5" stroke="#587178" stroke-width="1.4" marker-end="url(#arrow)" opacity="0.70"/>
<line x1="335.0" y1="380.0" x2="715.2" y2="125.9" stroke="#587178" stroke-width="1.4" marker-end="url(#arrow)" opacity="0.70"/>
<line x1="335.0" y1="380.0" x2="864.1" y2="274.8" stroke="#587178" stroke-width="1.4" marker-end="url(#arrow)" opacity="0.70"/>
<line x1="335.0" y1="380.0" x2="864.1" y2="485.2" stroke="#587178" stroke-width="1.4" marker-end="url(#arrow)" opacity="0.70"/>
<line x1="335.0" y1="380.0" x2="804.5" y2="574.5" stroke="#587178" stroke-width="1.4" marker-end="url(#arrow)" opacity="0.70"/>
<line x1="335.0" y1="380.0" x2="715.2" y2="634.1" stroke="#587178" stroke-width="1.4" marker-end="url(#arrow)" opacity="0.70"/>
<line x1="335.0" y1="380.0" x2="885.0" y2="380.0" stroke="#587178" stroke-width="1.4" marker-end="url(#arrow)" opacity="0.70"/>
<line x1="415.5" y1="185.5" x2="715.2" y2="125.9" stroke="#587178" stroke-width="1.4" marker-end="url(#arrow)" opacity="0.70"/>
<rect x="528.0" y="79.0" width="164" height="52" rx="16" fill="#bdebe4" stroke="#0b1f25" stroke-opacity="0.22"/>
<text x="610.0" y="109.0" text-anchor="middle" font-family="Arial" font-size="13" font-weight="700" fill="#0b1f25">Android app</text>
<rect x="633.2" y="99.9" width="164" height="52" rx="16" fill="#bdebe4" stroke="#0b1f25" stroke-opacity="0.22"/>
<text x="715.2" y="129.9" text-anchor="middle" font-family="Arial" font-size="13" font-weight="700" fill="#0b1f25">Mosquitto MQTT broker</text>
<rect x="722.5" y="159.5" width="164" height="52" rx="16" fill="#bdebe4" stroke="#0b1f25" stroke-opacity="0.22"/>
<text x="804.5" y="189.5" text-anchor="middle" font-family="Arial" font-size="13" font-weight="700" fill="#0b1f25">Raspberry Pi</text>
<rect x="782.1" y="248.8" width="164" height="52" rx="16" fill="#bdebe4" stroke="#0b1f25" stroke-opacity="0.22"/>
<text x="864.1" y="278.8" text-anchor="middle" font-family="Arial" font-size="13" font-weight="700" fill="#0b1f25">ESP32 controller</text>
<rect x="803.0" y="354.0" width="164" height="52" rx="16" fill="#ead1ff" stroke="#0b1f25" stroke-opacity="0.22"/>
<text x="885.0" y="384.0" text-anchor="middle" font-family="Arial" font-size="13" font-weight="700" fill="#0b1f25">Docker Compose</text>
<rect x="782.1" y="459.2" width="164" height="52" rx="16" fill="#d6e2ea" stroke="#0b1f25" stroke-opacity="0.22"/>
<text x="864.1" y="489.2" text-anchor="middle" font-family="Arial" font-size="13" font-weight="700" fill="#0b1f25">Ultrasonic sensor</text>
<rect x="722.5" y="548.5" width="164" height="52" rx="16" fill="#d6e2ea" stroke="#0b1f25" stroke-opacity="0.22"/>
<text x="804.5" y="578.5" text-anchor="middle" font-family="Arial" font-size="13" font-weight="700" fill="#0b1f25">LED indicator GPIO26</text>
<rect x="633.2" y="608.1" width="164" height="52" rx="16" fill="#d6e2ea" stroke="#0b1f25" stroke-opacity="0.22"/>
<text x="715.2" y="638.1" text-anchor="middle" font-family="Arial" font-size="13" font-weight="700" fill="#0b1f25">Motor pump GPIO27</text>
<rect x="528.0" y="629.0" width="164" height="52" rx="16" fill="#ffc9c9" stroke="#0b1f25" stroke-opacity="0.22"/>
<text x="610.0" y="659.0" text-anchor="middle" font-family="Arial" font-size="13" font-weight="700" fill="#0b1f25">tinaco/distancia</text>
<rect x="422.8" y="608.1" width="164" height="52" rx="16" fill="#ffc9c9" stroke="#0b1f25" stroke-opacity="0.22"/>
<text x="504.8" y="638.1" text-anchor="middle" font-family="Arial" font-size="13" font-weight="700" fill="#0b1f25">tinaco/nivel</text>
<rect x="333.5" y="548.5" width="164" height="52" rx="16" fill="#ffc9c9" stroke="#0b1f25" stroke-opacity="0.22"/>
<text x="415.5" y="578.5" text-anchor="middle" font-family="Arial" font-size="13" font-weight="700" fill="#0b1f25">tinaco/estado</text>
<rect x="273.9" y="459.2" width="164" height="52" rx="16" fill="#ffc9c9" stroke="#0b1f25" stroke-opacity="0.22"/>
<text x="355.9" y="489.2" text-anchor="middle" font-family="Arial" font-size="13" font-weight="700" fill="#0b1f25">tinaco/comando</text>
<rect x="253.0" y="354.0" width="164" height="52" rx="16" fill="#fff1a8" stroke="#0b1f25" stroke-opacity="0.22"/>
<text x="335.0" y="384.0" text-anchor="middle" font-family="Arial" font-size="13" font-weight="700" fill="#0b1f25">README.md</text>
<rect x="273.9" y="248.8" width="164" height="52" rx="16" fill="#ead1ff" stroke="#0b1f25" stroke-opacity="0.22"/>
<text x="355.9" y="278.8" text-anchor="middle" font-family="Arial" font-size="13" font-weight="700" fill="#0b1f25">compose.yaml</text>
<rect x="333.5" y="159.5" width="164" height="52" rx="16" fill="#ead1ff" stroke="#0b1f25" stroke-opacity="0.22"/>
<text x="415.5" y="189.5" text-anchor="middle" font-family="Arial" font-size="13" font-weight="700" fill="#0b1f25">mosquitto/config/mosq...</text>
<rect x="422.8" y="99.9" width="164" height="52" rx="16" fill="#cfd8ff" stroke="#0b1f25" stroke-opacity="0.22"/>
<text x="504.8" y="129.9" text-anchor="middle" font-family="Arial" font-size="13" font-weight="700" fill="#0b1f25">App/app/src/main/Andr...</text>
</svg>
